<?xml version="1.0" encoding="UTF-8" standalone="no"?>
<!-- Created with Inkscape (http://www.inkscape.org/) -->

<svg
   xmlns:osb="http://www.openswatchbook.org/uri/2009/osb"
   xmlns:dc="http://purl.org/dc/elements/1.1/"
   xmlns:cc="http://creativecommons.org/ns#"
   xmlns:rdf="http://www.w3.org/1999/02/22-rdf-syntax-ns#"
   xmlns:svg="http://www.w3.org/2000/svg"
   xmlns="http://www.w3.org/2000/svg"
   xmlns:sodipodi="http://sodipodi.sourceforge.net/DTD/sodipodi-0.dtd"
   xmlns:inkscape="http://www.inkscape.org/namespaces/inkscape"
   width="800px"
   height="600px"
   id="svg2985"
   version="1.1"
   inkscape:version="0.48.2 r9819"
   sodipodi:docname="Neues Dokument 2">
  <defs
     id="defs2987">
    <linearGradient
       id="linearGradient3915"
       osb:paint="solid">
      <stop
         style="stop-color:#4169e1;stop-opacity:1;"
         offset="0"
         id="stop3917" />
    </linearGradient>
  </defs>
  <sodipodi:namedview
     id="base"
     pagecolor="#ffffff"
     bordercolor="#666666"
     borderopacity="1.0"
     inkscape:pageopacity="0.0"
     inkscape:pageshadow="2"
     inkscape:zoom="1"
     inkscape:cx="253.53566"
     inkscape:cy="231.72686"
     inkscape:current-layer="layer1"
     inkscape:document-units="px"
     showgrid="false"
     inkscape:snap-page="false"
     inkscape:window-width="1918"
     inkscape:window-height="1040"
     inkscape:window-x="0"
     inkscape:window-y="19"
     inkscape:window-maximized="0">
    <inkscape:grid
       type="xygrid"
       id="grid3050" />
  </sodipodi:namedview>
  <metadata
     id="metadata2990">
    <rdf:RDF>
      <cc:Work
         rdf:about="">
        <dc:format>image/svg+xml</dc:format>
        <dc:type
           rdf:resource="http://purl.org/dc/dcmitype/StillImage" />
        <dc:title></dc:title>
      </cc:Work>
    </rdf:RDF>
  </metadata>
  <g
     id="layer1"
     inkscape:label="Layer 1"
     inkscape:groupmode="layer">
    <path
       sodipodi:type="arc"
       style="fill:#4169e1"
       id="path2993"
       sodipodi:cx="216.25"
       sodipodi:cy="285.70706"
       sodipodi:rx="85.416664"
       sodipodi:ry="138.20708"
       d="m 301.66666,285.70706 a 85.416664,138.20708 0 1 1 -170.83332,0 85.416664,138.20708 0 1 1 170.83332,0 z"
       transform="matrix(1.5365854,0,0,1.3023935,-152.28659,-82.103023)" />
    <path
       sodipodi:type="arc"
       style="fill:#9acd32"
       id="path2993-5"
       sodipodi:cx="216.25"
       sodipodi:cy="285.70706"
       sodipodi:rx="85.416664"
       sodipodi:ry="138.20708"
       d="m 301.66666,285.70706 a 85.416664,138.20708 0 1 1 -170.83332,0 85.416664,138.20708 0 1 1 170.83332,0 z"
       transform="matrix(1.5365854,0,0,1.3406724,239.38007,-93.872906)" />
    <flowRoot
       xml:space="preserve"
       id="flowRoot3015"
       style="font-size:40px;font-style:normal;font-weight:normal;line-height:125%;letter-spacing:0px;word-spacing:0px;fill:#000000;fill-opacity:1;stroke:none;font-family:Sans"><flowRegion
         id="flowRegion3017"><rect
           id="rect3019"
           width="38.333332"
           height="43.33334"
           x="183.33333"
           y="187.5" /></flowRegion><flowPara
         id="flowPara3021">A</flowPara></flowRoot>    <path
       transform="matrix(1.0909088,0,0,1.0909088,-33.636301,110.90915)"
       sodipodi:type="arc"
       style="fill:#7cfc00"
       id="path3023-5"
       sodipodi:cx="195.83333"
       sodipodi:cy="200.83333"
       sodipodi:rx="18.333334"
       sodipodi:ry="18.333334"
       d="m 214.16666,200.83333 a 18.333334,18.333334 0 1 1 -36.66667,0 18.333334,18.333334 0 1 1 36.66667,0 z" />
    <path
       transform="matrix(1.0909091,0,0,1.0909091,-33.636359,36.742428)"
       sodipodi:type="arc"
       style="fill:#7cfc00"
       id="path3023-5-4"
       sodipodi:cx="195.83333"
       sodipodi:cy="200.83333"
       sodipodi:rx="18.333334"
       sodipodi:ry="18.333334"
       d="m 214.16666,200.83333 a 18.333334,18.333334 0 1 1 -36.66667,0 18.333334,18.333334 0 1 1 36.66667,0 z" />
    <path
       transform="matrix(1.0909091,0,0,1.0909091,-33.636361,-39.090905)"
       sodipodi:type="arc"
       style="fill:#7fff00"
       id="path3023-5-4-8"
       sodipodi:cx="195.83333"
       sodipodi:cy="200.83333"
       sodipodi:rx="18.333334"
       sodipodi:ry="18.333334"
       d="m 214.16666,200.83333 a 18.333334,18.333334 0 1 1 -36.66667,0 18.333334,18.333334 0 1 1 36.66667,0 z" />
    <path
       sodipodi:type="arc"
       style="fill:#cd5c5c;stroke:#000000;stroke-width:1.89999998;stroke-linejoin:round;stroke-miterlimit:4;stroke-opacity:1;stroke-dasharray:none"
       id="path4130"
       sodipodi:cx="558.61438"
       sodipodi:cy="213.21259"
       sodipodi:rx="43.840622"
       sodipodi:ry="61.518291"
       d="m 602.455,213.21259 a 43.840622,61.518291 0 1 1 -87.68124,0 43.840622,61.518291 0 1 1 87.68124,0 z"
       transform="matrix(1.2215765,0,0,1.1693994,-112.46211,-38.239394)" />
    <path
       transform="matrix(1.0909091,0,0,1.0909091,356.36364,-49.090905)"
       sodipodi:type="arc"
       style="fill:#ff8c00"
       id="path3023-5-4-8-3"
       sodipodi:cx="195.83333"
       sodipodi:cy="200.83333"
       sodipodi:rx="18.333334"
       sodipodi:ry="18.333334"
       d="m 214.16666,200.83333 a 18.333334,18.333334 0 1 1 -36.66667,0 18.333334,18.333334 0 1 1 36.66667,0 z" />
    <path
       transform="matrix(1.0909091,0,0,1.0909091,356.36364,30.909095)"
       sodipodi:type="arc"
       style="fill:#ff8c00"
       id="path3023-5-4-8-6"
       sodipodi:cx="195.83333"
       sodipodi:cy="200.83333"
       sodipodi:rx="18.333334"
       sodipodi:ry="18.333334"
       d="m 214.16666,200.83333 a 18.333334,18.333334 0 1 1 -36.66667,0 18.333334,18.333334 0 1 1 36.66667,0 z" />
    <path
       transform="matrix(1.0909091,0,0,1.0909091,356.36364,110.90909)"
       sodipodi:type="arc"
       style="fill:#ff8c00"
       id="path3023-5-4-8-8"
       sodipodi:cx="195.83333"
       sodipodi:cy="200.83333"
       sodipodi:rx="18.333334"
       sodipodi:ry="18.333334"
       d="m 214.16666,200.83333 a 18.333334,18.333334 0 1 1 -36.66667,0 18.333334,18.333334 0 1 1 36.66667,0 z" />
    <path
       transform="matrix(1.0909091,0,0,1.0909091,356.36364,190.90909)"
       sodipodi:type="arc"
       style="fill:#ff8c00"
       id="path3023-5-4-8-0"
       sodipodi:cx="195.83333"
       sodipodi:cy="200.83333"
       sodipodi:rx="18.333334"
       sodipodi:ry="18.333334"
       d="m 214.16666,200.83333 a 18.333334,18.333334 0 1 1 -36.66667,0 18.333334,18.333334 0 1 1 36.66667,0 z" />
    <path
       style="fill:#000000;fill-opacity:1;stroke:#000000;stroke-width:0.95620281;stroke-linejoin:round;stroke-miterlimit:4;stroke-opacity:1;stroke-dasharray:none"
       d="m 514.45306,165.81067 -0.13482,17.97243 8.69595,-10.11563 -8.56113,-7.8568 z m -253.05907,6.97291 0,2.91356 251.67715,0 0,-2.91356 -251.67715,0 z"
       id="rect3145"
       inkscape:connector-curvature="0" />
    <path
       style="fill:#000000;fill-opacity:1;stroke:#000000;stroke-width:0.87007213;stroke-linejoin:round;stroke-miterlimit:4;stroke-opacity:1;stroke-dasharray:none"
       d="m 513.52614,192.6052 4.28146,14.22653 6.17943,-9.42646 -10.46089,-4.80007 z m -250.44009,47.17352 0.71586,2.30271 250.77633,-41.43505 -0.71584,-2.3027 -250.77635,41.43504 z"
       id="rect3145-4"
       inkscape:connector-curvature="0" />
    <path
       style="fill:#000000;fill-opacity:1;stroke:#000000;stroke-width:1.03236711;stroke-linejoin:round;stroke-miterlimit:4;stroke-opacity:1;stroke-dasharray:none"
       d="m 522.1753,255.28537 3.43731,19.74579 6.94214,-12.65779 z m -259.20832,52.98003 0.57974,3.19713 221.06956,-38.4532 38.10315,-6.62772 -0.57973,-3.19713 z"
       id="rect3145-8"
       inkscape:connector-curvature="0"
       sodipodi:nodetypes="cccccccccc" />
    <flowRoot
       xml:space="preserve"
       id="flowRoot3965"
       style="font-size:40px;font-style:normal;font-weight:normal;line-height:125%;letter-spacing:0px;word-spacing:0px;fill:#000000;fill-opacity:1;stroke:none;font-family:Sans"
       transform="matrix(1.497076,0,0,1.3717348,-63.728067,-51.509733)"><flowRegion
         id="flowRegion3967"><rect
           id="rect3969"
           width="33.333332"
           height="46.666668"
           x="150"
           y="76.666664" /></flowRegion><flowPara
         id="flowPara3971">A0A</flowPara></flowRoot>    <flowRoot
       xml:space="preserve"
       id="flowRoot3965-6"
       style="font-size:40px;font-style:normal;font-weight:normal;line-height:125%;letter-spacing:0px;word-spacing:0px;fill:#000000;fill-opacity:1;stroke:none;font-family:Sans"
       transform="matrix(1.497076,0,0,1.3717348,325.4386,-59.843066)"><flowRegion
         id="flowRegion3967-0"><rect
           id="rect3969-1"
           width="33.333332"
           height="46.666668"
           x="150"
           y="76.666664" /></flowRegion><flowPara
         id="flowPara3971-0">B</flowPara><flowPara
         id="flowPara4027" /></flowRoot>    <flowRoot
       xml:space="preserve"
       id="flowRoot4033"
       style="font-size:40px;font-style:normal;font-weight:normal;line-height:125%;letter-spacing:0px;word-spacing:0px;fill:#000000;fill-opacity:1;stroke:none;font-family:Sans"
       transform="matrix(1.4797688,0,0,1.3717348,-45.689608,-34.201459)"><flowRegion
         id="flowRegion4035"><rect
           id="rect4037"
           width="227.34375"
           height="55.903316"
           x="138.33333"
           y="63.333332" /></flowRegion><flowPara
         id="flowPara4041">A</flowPara></flowRoot>    <text
       xml:space="preserve"
       style="font-size:40px;font-style:normal;font-weight:normal;line-height:125%;letter-spacing:0px;word-spacing:0px;fill:#000000;fill-opacity:1;stroke:none;font-family:Sans"
       x="167.5"
       y="191.66667"
       id="text4045"
       sodipodi:linespacing="125%"><tspan
         sodipodi:role="line"
         id="tspan4047"
         x="167.5"
         y="191.66667">a</tspan></text>
    <text
       xml:space="preserve"
       style="font-size:40px;font-style:normal;font-weight:normal;line-height:125%;letter-spacing:0px;word-spacing:0px;fill:#000000;fill-opacity:1;stroke:none;font-family:Sans"
       x="167.5"
       y="270"
       id="text4049"
       sodipodi:linespacing="125%"><tspan
         sodipodi:role="line"
         id="tspan4051"
         x="167.5"
         y="270">b</tspan></text>
    <text
       xml:space="preserve"
       style="font-size:40px;font-style:normal;font-weight:normal;line-height:125%;letter-spacing:0px;word-spacing:0px;fill:#000000;fill-opacity:1;stroke:none;font-family:Sans"
       x="168.33333"
       y="341.66666"
       id="text4053"
       sodipodi:linespacing="125%"><tspan
         sodipodi:role="line"
         id="tspan4055"
         x="168.33333"
         y="341.66666">c</tspan></text>
    <text
       xml:space="preserve"
       style="font-size:40px;font-style:normal;font-weight:normal;line-height:125%;letter-spacing:0px;word-spacing:0px;fill:#000000;fill-opacity:1;stroke:none;font-family:Sans"
       x="556.66669"
       y="183.33333"
       id="text4065"
       sodipodi:linespacing="125%"><tspan
         sodipodi:role="line"
         id="tspan4067"
         x="556.66669"
         y="183.33333">1</tspan></text>
    <text
       xml:space="preserve"
       style="font-size:40px;font-style:normal;font-weight:normal;line-height:125%;letter-spacing:0px;word-spacing:0px;fill:#000000;fill-opacity:1;stroke:none;font-family:Sans"
       x="557.90729"
       y="264.12427"
       id="text4092"
       sodipodi:linespacing="125%"><tspan
         sodipodi:role="line"
         id="tspan4094"
         x="557.90729"
         y="264.12427">2</tspan></text>
    <text
       xml:space="preserve"
       style="font-size:40px;font-style:normal;font-weight:normal;line-height:125%;letter-spacing:0px;word-spacing:0px;fill:#000000;fill-opacity:1;stroke:none;font-family:Sans"
       x="558.61438"
       y="344.73444"
       id="text4096"
       sodipodi:linespacing="125%"><tspan
         sodipodi:role="line"
         id="tspan4098"
         x="558.61438"
         y="344.73444">3</tspan></text>
    <text
       xml:space="preserve"
       style="font-size:40px;font-style:normal;font-weight:normal;line-height:125%;letter-spacing:0px;word-spacing:0px;fill:#000000;fill-opacity:1;stroke:none;font-family:Sans"
       x="555.78595"
       y="423.93042"
       id="text4100"
       sodipodi:linespacing="125%"><tspan
         sodipodi:role="line"
         id="tspan4102"
         x="555.78595"
         y="423.93042">4</tspan></text>
    <path
       style="fill:#000000;stroke:#000000;stroke-width:1.89999998;stroke-linejoin:round;stroke-miterlimit:4;stroke-opacity:1;stroke-dasharray:none"
       id="path4104"
       d="m 107.53721,157.28568 c -2.35543,-0.38669 -4.95834,-0.45482 -7.09118,0.81169 -0.43639,0.25913 -1.627976,1.20315 -1.183956,0.95733 5.655436,-3.131 11.224536,-6.41545 16.836806,-9.62318 -1.93464,1.88412 -2.03736,4.57276 -2.1641,7.11082 -0.27042,2.8338 0.3444,5.59157 0.7952,8.36772 0.34412,2.82088 0.51747,5.62832 1.3097,8.36903 0.93233,3.29322 2.54312,6.32172 4.02335,9.38866 1.26057,2.89924 2.05627,5.98722 2.83454,9.04653 0.75811,3.05845 0.85043,6.20997 0.93962,9.34239 0.0666,3.07398 0.0612,6.14888 0.0594,9.2234 0.0513,3.04399 0.0372,6.06212 -0.36542,9.08206 -0.5653,3.52574 -1.30628,7.03075 -2.07226,10.51948 -1.09121,2.98786 -1.95187,6.07633 -3.17771,9.0129 -1.34281,2.49964 -3.32423,4.64511 -5.79036,6.07666 -6.45695,3.7482 -12.953276,7.42816 -19.429916,11.14223 -3.61734,1.26287 -7.4031,2.06575 -11.16327,2.81096 -3.40044,0.38831 -6.19672,0.56747 -9.21021,2.30417 5.55364,-3.15663 11.07371,-6.37308 16.66093,-9.4699 0.35314,-0.19574 -0.6579,0.474 -0.94427,0.75863 -1.02947,1.02324 -0.47992,1.8686 0.30958,2.81004 2.02939,1.59703 4.65561,1.74879 7.13403,1.91003 3.13527,-0.2029 5.956986,0.76129 8.754086,2.07424 3.63646,1.72231 6.77477,4.24497 9.79665,6.86113 2.80383,2.62077 4.93401,5.79547 6.77308,9.13718 1.61792,3.05092 2.26143,6.4004 2.58781,9.79945 0.2218,2.94905 0.27388,5.8932 -0.16552,8.82062 -0.52024,3.15638 -2.09913,5.90946 -3.49145,8.73205 -1.388,2.86417 -2.65874,5.78504 -4.18448,8.57956 -1.8296,2.80428 -2.69033,6.04623 -3.7775,9.17425 -1.38003,3.34893 -2.71972,6.71886 -3.89688,10.14514 -1.16547,2.91323 -2.02541,5.87688 -2.43659,8.98612 -0.58944,3.32793 -1.18179,6.63983 -1.47405,10.00955 -0.22643,3.07035 -0.24589,6.15036 -0.25842,9.22741 0.0102,2.92722 -0.18149,5.84431 0.44106,8.71874 1.18978,3.01876 3.50637,5.44528 5.93564,7.52788 2.92653,2.37678 6.64381,3.17334 10.19449,4.16705 2.97115,1.25047 6.06979,1.98469 9.2632,2.33144 2.05009,0.30501 3.96651,-0.35549 5.76425,-1.30402 0.53706,-0.28336 2.09621,-1.2269 1.56844,-0.92658 -5.42118,3.08474 -10.83256,6.18667 -16.24884,9.28 0.53825,-0.364 1.07651,-0.72801 1.61476,-1.09201 0,0 19.3881,-7.6833 19.3881,-7.6833 l 0,0 c -0.51785,0.40836 -1.03571,0.81672 -1.55356,1.22509 -6.49798,3.77352 -12.96206,7.60601 -19.49393,11.32055 -2.48445,1.41286 -5.37793,1.71049 -8.15161,1.25847 -3.22473,-0.53544 -6.31607,-1.50093 -9.38316,-2.62454 -3.800036,-1.16134 -7.663746,-2.22975 -10.710516,-4.93492 -2.66857,-2.46206 -5.2432,-5.17064 -6.57869,-8.60893 -0.81881,-3.02166 -0.81166,-6.03526 -0.71716,-9.1526 0.0119,-3.13106 0.0318,-6.26423 0.2302,-9.39021 0.24671,-3.38922 0.62659,-6.75665 1.4345,-10.06531 0.30203,-3.23508 0.8572,-6.39581 2.25095,-9.36689 1.07227,-3.48333 2.48243,-6.86328 3.87348,-10.2285 1.24954,-3.15687 1.86552,-6.55825 3.61029,-9.50003 1.67925,-2.66462 2.85214,-5.57483 4.254746,-8.38671 1.19745,-2.77197 2.96019,-5.25853 3.70779,-8.22213 0.5289,-2.77653 0.62902,-5.53031 0.40952,-8.35827 -0.20802,-3.12835 -0.64471,-6.23569 -2.10186,-9.06264 -1.71033,-3.12039 -3.745856,-6.07047 -6.363476,-8.50631 -2.91617,-2.46814 -5.95808,-4.82942 -9.52918,-6.28213 -2.73954,-1.05958 -5.46203,-1.53456 -8.40744,-1.53067 -2.98782,-0.38806 -5.91876,-1.04581 -8.0855,-3.3098 -0.90034,-1.19726 -1.82243,-2.44207 -1.83621,-4.02954 -0.0712,-8.19947 29.30083,-12.41204 20.20222,-13.84617 3.06549,-1.14824 6.28115,-1.26466 9.47356,-1.89684 3.670066,-0.81988 7.452036,-1.51049 10.797766,-3.30029 -5.44771,3.15203 -10.917976,6.26539 -16.343136,9.45608 -0.49961,0.29384 1.0578,-0.47799 1.56243,-0.76312 1.85161,-1.0462 3.38124,-2.47566 4.63225,-4.1876 1.668666,-2.63061 1.963196,-5.83962 3.430156,-8.5933 0.93942,-3.3788 1.46245,-6.89196 2.15828,-10.32534 0.44437,-2.93054 0.56549,-5.83726 0.46249,-8.80461 0.0106,-3.06339 0.0326,-6.12698 -0.003,-9.19028 -0.0599,-2.9865 -0.13113,-5.9929 -0.75706,-8.9259 -0.69606,-2.93887 -1.4859,-5.88455 -2.58156,-8.69727 -1.49717,-3.16683 -3.192236,-6.26713 -4.216886,-9.63151 -0.91635,-2.8149 -1.22547,-5.6888 -1.45853,-8.62931 -0.44172,-2.89927 -1.20907,-5.76415 -0.98299,-8.72098 0.0595,-2.91386 0.10958,-5.91657 1.49293,-8.56032 10.851506,-6.6635 16.478096,-14.35753 28.130366,-12.00419 0,0 -17.31672,11.85942 -17.31672,11.85942 z"
       inkscape:connector-curvature="0" />
    <text
       xml:space="preserve"
       style="font-size:40px;font-style:normal;font-weight:normal;line-height:125%;letter-spacing:0px;word-spacing:0px;fill:#000000;fill-opacity:1;stroke:none;font-family:Sans"
       x="-423.00626"
       y="48.723331"
       id="text4106"
       sodipodi:linespacing="125%"
       transform="matrix(0,-1,1,0,0,0)"><tspan
         sodipodi:role="line"
         id="tspan4108"
         x="-423.00626"
         y="48.723331"
         style="font-size:32px">Definitionsmenge</tspan></text>
    <path
       style="fill:#000000;stroke:#000000;stroke-width:1.89999998;stroke-linejoin:round;stroke-miterlimit:4;stroke-opacity:1;stroke-dasharray:none"
       id="path4112"
       d="m 651.81641,136.62195 c 3.97947,0.3837 7.88797,1.10286 11.82133,1.79447 3.33218,0.3195 6.526,1.00621 9.51996,2.52055 3.14057,1.25503 5.57915,3.51565 7.7112,6.076 1.91609,2.60722 2.71615,5.66784 2.81017,8.85665 0.009,3.49215 -1.75571,6.29033 -3.66011,9.06018 -1.6633,2.76268 -3.00432,5.67983 -4.6928,8.43448 -1.45438,2.57344 -2.55817,5.34872 -3.34714,8.19476 -0.64606,2.90285 -0.71046,5.87984 -1.1552,8.81529 -0.53563,3.07383 -0.80717,6.17962 -0.9558,9.2932 -0.0756,3.18334 1.84399,5.5979 3.76128,7.93463 2.85005,2.87348 5.96776,5.44666 9.20069,7.8711 3.01729,1.94712 6.27757,3.54705 9.67338,4.71509 3.36216,0.82611 6.49069,2.28711 9.85338,3.12071 3.40284,0.57319 6.54598,2.01911 9.8958,2.8247 2.91203,0.6922 5.93215,0.24985 8.64759,1.60397 2.48645,2.48103 0.8129,5.39555 -0.6817,7.90952 -1.90714,2.85483 -3.9521,5.56754 -6.37121,8.00461 -2.55722,2.27664 -5.2863,4.37707 -8.06627,6.37693 -3.00278,2.10751 -5.80889,4.47873 -8.41232,7.0602 -2.33334,2.70692 -4.81538,5.30598 -6.89425,8.21817 -1.45023,2.69392 -2.95513,5.38251 -4.03361,8.25193 -0.99768,3.00971 -2.47949,5.82736 -3.90871,8.64825 -1.38562,2.79736 -2.90711,5.52958 -4.17115,8.38502 -1.33359,2.65298 -2.05522,5.48298 -2.71162,8.35566 -0.81654,2.77691 -1.15076,5.65342 -1.79809,8.46752 -0.5656,2.88208 -1.25955,5.73166 -2.05833,8.55787 -0.98092,2.67614 -1.52326,5.44983 -1.81391,8.27564 -0.0737,3.08756 -0.37592,6.13344 -0.81872,9.18815 -0.32799,3.10613 -0.71814,6.18264 -1.31582,9.24878 -0.5638,2.76322 -0.74339,5.57751 -0.84723,8.38894 -0.0183,2.77749 -0.19085,5.56658 0.0478,8.33705 0.33029,2.84239 1.00618,5.60677 1.67759,8.38083 0.63898,2.98338 1.47872,5.92338 2.28584,8.8658 0.66246,3.22302 1.95096,6.25175 3.00764,9.35163 0.78808,2.85658 1.40365,5.75964 2.25023,8.6012 1.00063,2.91317 2.16176,5.72507 2.75195,8.76018 0.51944,3.21491 0.60387,6.47571 0.65733,9.72507 0.1438,3.02066 0.0165,5.98212 -0.67756,8.92759 -1.07504,3.35999 -3.24818,6.16271 -5.82032,8.51603 -7.27037,5.41896 -1.02203,0.83972 -20.57555,12.19912 -1.87201,1.08753 -3.71981,1.80172 -5.81587,2.32417 -3.48705,0.3023 -6.9249,0.84574 -10.38801,1.34593 0,0 16.71316,-12.52153 16.71316,-12.52153 l 0,0 c 3.41856,-0.51671 6.89392,-0.76856 10.24364,-1.63172 1.43894,-0.52987 2.76644,-1.13186 4.10788,-1.8785 0.4702,-0.2617 1.86589,-1.07316 1.40135,-0.80152 -17.22768,10.07381 -21.78341,13.0687 -15.10583,8.72504 2.76065,-1.79755 4.87882,-4.32831 6.31797,-7.2983 0.96078,-2.72535 1.08717,-5.50653 0.95454,-8.37995 -0.0189,-3.14168 -0.0397,-6.29553 -0.47439,-9.4132 -0.5243,-2.97167 -1.64479,-5.70447 -2.65559,-8.53279 -0.90618,-2.81031 -1.50948,-5.70906 -2.21776,-8.57238 -1.01879,-3.15122 -2.38801,-6.19397 -3.03568,-9.45909 -0.82198,-2.95962 -1.74743,-5.90096 -2.36299,-8.91019 -0.66405,-2.85436 -1.43896,-5.66829 -1.79342,-8.58699 -0.42872,-2.84972 -0.17189,-5.74275 -0.19446,-8.61786 0.073,-2.90803 0.1921,-5.82416 0.71094,-8.69334 0.57923,-3.05192 1.20309,-6.06361 1.3887,-9.1759 0.43426,-3.0176 0.89192,-6.00251 0.82974,-9.06328 0.21738,-2.95248 0.59732,-5.89793 1.6236,-8.69492 0.96953,-2.72489 1.56662,-5.57954 2.12124,-8.41269 0.68443,-2.8242 1.05873,-5.6861 1.7824,-8.50304 0.82356,-2.88602 1.07924,-5.94858 2.60304,-8.61482 1.10458,-2.98638 2.73577,-5.71336 4.09476,-8.58541 1.49109,-2.69666 2.85796,-5.48193 4.03474,-8.32691 0.91661,-3.09771 2.53966,-5.80885 3.8481,-8.74554 1.85784,-3.16731 4.47972,-5.71757 6.77319,-8.56745 2.42313,-2.80647 5.29439,-5.19442 8.2377,-7.43984 2.7725,-1.97163 5.44805,-4.05056 8.18027,-6.08033 2.45842,-2.31987 4.67131,-4.73622 6.53054,-7.57274 0.20655,-0.28745 2.76929,-4.25148 2.74146,-4.34941 -0.0412,-0.14502 -0.23217,-0.19239 -0.34826,-0.28859 -2.74003,-0.77483 -5.70245,-0.49382 -8.42511,-1.43205 -3.30453,-0.94771 -6.5156,-2.20543 -9.90614,-2.84129 -3.34861,-1.0021 -6.59034,-2.3226 -9.95315,-3.28292 -3.48187,-1.40701 -6.91162,-3.04824 -9.96807,-5.24794 -3.32759,-2.55604 -6.52822,-5.29022 -9.47753,-8.2782 -2.22217,-2.7218 -4.36314,-5.59073 -4.55141,-9.23893 0.12213,-3.18627 0.34587,-6.37014 0.8819,-9.51747 0.47831,-2.98241 0.61318,-5.97188 1.04193,-8.96043 0.66025,-3.05189 1.79549,-5.95297 3.11758,-8.77578 1.64002,-2.814 3.38964,-5.53271 4.65554,-8.54834 1.67619,-2.50793 3.89755,-4.79452 4.11746,-7.96119 0.26634,-2.68277 -0.47385,-5.33412 -2.04241,-7.53511 -2.00545,-2.32502 -4.32539,-4.18939 -7.22185,-5.30024 -2.94459,-1.19827 -6.05586,-1.63938 -9.18417,-2.11798 -3.93529,-0.7423 -7.88495,-1.30024 -11.87563,-1.65827 0,0 17.15861,-12.09824 17.15861,-12.09824 z"
       inkscape:connector-curvature="0" />
    <flowRoot
       xml:space="preserve"
       id="flowRoot4114"
       style="font-size:40px;font-style:normal;font-weight:normal;line-height:125%;letter-spacing:0px;word-spacing:0px;fill:#000000;fill-opacity:1;stroke:none;font-family:Sans"><flowRegion
         id="flowRegion4116"><rect
           id="rect4118"
           width="48.08326"
           height="236.17366"
           x="728.32001"
           y="151.69431" /></flowRegion><flowPara
         id="flowPara4120">Wer</flowPara></flowRoot>    <flowRoot
       xml:space="preserve"
       id="flowRoot4122"
       style="font-size:40px;font-style:normal;font-weight:normal;line-height:125%;letter-spacing:0px;word-spacing:0px;fill:#000000;fill-opacity:1;stroke:none;font-family:Sans"
       transform="matrix(0,1,-1,0,1245.7438,-101.38437)"><flowRegion
         id="flowRegion4124"><rect
           id="rect4126"
           width="299.81326"
           height="60.811184"
           x="255.97266"
           y="476.96341" /></flowRegion><flowPara
         id="flowPara4128"
         style="font-size:32px">Wertemenge</flowPara></flowRoot>    <text
       xml:space="preserve"
       style="font-size:39.97228622px;font-style:normal;font-weight:normal;line-height:124.00000095%;letter-spacing:0px;word-spacing:0px;fill:#000000;fill-opacity:1;stroke:none;font-family:Sans"
       x="482.58661"
       y="130.3907"
       id="text4132"
       sodipodi:linespacing="124%"
       transform="scale(0.99930719,1.0006933)"><tspan
         sodipodi:role="line"
         id="tspan4134"
         x="482.58661"
         y="130.3907"
         style="font-size:32px;line-height:124.00000095%">Bildbereich</tspan></text>
    <text
       xml:space="preserve"
       style="font-size:40px;font-style:normal;font-weight:normal;line-height:125%;letter-spacing:0px;word-spacing:0px;fill:#000000;fill-opacity:1;stroke:none;font-family:Sans"
       x="363.45288"
       y="161.5938"
       id="text4136"
       sodipodi:linespacing="125%"><tspan
         sodipodi:role="line"
         id="tspan4138"
         x="363.45288"
         y="161.5938"
         style="font-size:32px">f(a)</tspan></text>
    <text
       xml:space="preserve"
       style="font-size:40px;font-style:normal;font-weight:normal;line-height:125%;letter-spacing:0px;word-spacing:0px;fill:#000000;fill-opacity:1;stroke:none;font-family:Sans"
       x="356.38184"
       y="211.09126"
       id="text4140"
       sodipodi:linespacing="125%"><tspan
         sodipodi:role="line"
         id="tspan4142"
         x="356.38184"
         y="211.09126"
         style="font-size:32px">f(b)</tspan></text>
    <text
       xml:space="preserve"
       style="font-size:40px;font-style:normal;font-weight:normal;line-height:125%;letter-spacing:0px;word-spacing:0px;fill:#000000;fill-opacity:1;stroke:none;font-family:Sans"
       x="360.62445"
       y="273.31665"
       id="text4144"
       sodipodi:linespacing="125%"><tspan
         sodipodi:role="line"
         id="tspan4146"
         x="360.62445"
         y="273.31665"
         style="font-size:32px">f(c)</tspan></text>
    <text
       xml:space="preserve"
       style="font-size:40px;font-style:normal;font-weight:normal;line-height:125%;letter-spacing:0px;word-spacing:0px;fill:#000000;fill-opacity:1;stroke:none;font-family:Sans"
       x="270.11481"
       y="124.82424"
       id="text4148"
       sodipodi:linespacing="125%"><tspan
         sodipodi:role="line"
         id="tspan4150"
         x="270.11481"
         y="124.82424"
         style="font-size:32px">Abbildungen</tspan></text>
    <text
       xml:space="preserve"
       x="249.93607"
       y="526.00507"
       id="text4152"><tspan
         sodipodi:role="line"
         id="tspan4154"
         x="249.93607"
         y="526.00507"
         style="font-size:36px">f<tspan
   style="font-size:36px;baseline-shift:super"
   id="tspan4158">-1</tspan>(1) = {a,b}</tspan></text>
    <text
       xml:space="preserve"
       style="font-size:40px;font-style:normal;font-weight:normal;line-height:125%;letter-spacing:0px;word-spacing:0px;fill:#000000;fill-opacity:1;stroke:none;font-family:Sans"
       x="242"
       y="483"
       id="text4161"
       sodipodi:linespacing="125%"><tspan
         sodipodi:role="line"
         id="tspan4163"
         x="242"
         y="483">Urbildmenge:</tspan></text>
  </g>
</svg>
