<?xml version="1.0" encoding="UTF-8" standalone="no"?>
<!-- Created with Inkscape (http://www.inkscape.org/) -->
<svg xmlns:dc="http://purl.org/dc/elements/1.1/" xmlns:cc="http://web.resource.org/cc/" xmlns:rdf="http://www.w3.org/1999/02/22-rdf-syntax-ns#" xmlns:svg="http://www.w3.org/2000/svg" xmlns="http://www.w3.org/2000/svg" xmlns:sodipodi="http://inkscape.sourceforge.net/DTD/sodipodi-0.dtd" xmlns:inkscape="http://www.inkscape.org/namespaces/inkscape" xml:space="preserve" id="svg602" height="200pt" width="250pt" y="0.00000000" x="0.00000000" version="1.0" sodipodi:version="0.32" inkscape:version="0.43" sodipodi:docname="Lattice_of_the_divisibility_of_60.svg" sodipodi:docbase="C:\Documents and Settings\Administrator\Desktop"><metadata id="metadata61"><rdf:RDF><cc:Work rdf:about=""><dc:format>image/svg+xml</dc:format><dc:type rdf:resource="http://purl.org/dc/dcmitype/StillImage"/></cc:Work></rdf:RDF></metadata><sodipodi:namedview inkscape:window-height="955" inkscape:window-width="1280" inkscape:pageshadow="2" inkscape:pageopacity="0.0" borderopacity="1.0" bordercolor="#666666" pagecolor="#ffffff" id="base" inkscape:zoom="2.08" inkscape:cx="169.02535" inkscape:cy="181.49038" inkscape:window-x="-4" inkscape:window-y="-4" inkscape:current-layer="svg602"/>
  <defs id="defs604"/>
  <g id="g726" style="font-size:12px" transform="translate(-1.801471,-65.4991)">
    <path id="path606" style="fill-rule:evenodd;stroke-width:1" transform="translate(64.78288,62.93819)" d="M 154.92281,35.472965 C 154.92281,38.271713 152.65397,40.540546 149.85523,40.540546 C 147.05648,40.540546 144.78764,38.271713 144.78764,35.472965 C 144.78764,32.674217 147.05648,30.405384 149.85523,30.405384 C 152.65397,30.405384 154.92281,32.674217 154.92281,35.472965 z "/>
    <path id="path709" style="fill-rule:evenodd;stroke-width:1" transform="translate(64.78288,112.2803)" d="M 154.92281,35.472965 C 154.92281,38.271713 152.65397,40.540546 149.85523,40.540546 C 147.05648,40.540546 144.78764,38.271713 144.78764,35.472965 C 144.78764,32.674217 147.05648,30.405384 149.85523,30.405384 C 152.65397,30.405384 154.92281,32.674217 154.92281,35.472965 z "/>
  </g>
  <g id="g729" style="font-size:12px" transform="translate(-91.43963,-13.68991)">
    <path id="path730" style="fill-rule:evenodd;stroke-width:1" transform="translate(64.78288,62.93819)" d="M 154.92281,35.472965 C 154.92281,38.271713 152.65397,40.540546 149.85523,40.540546 C 147.05648,40.540546 144.78764,38.271713 144.78764,35.472965 C 144.78764,32.674217 147.05648,30.405384 149.85523,30.405384 C 152.65397,30.405384 154.92281,32.674217 154.92281,35.472965 z "/>
    <path id="path731" style="fill-rule:evenodd;stroke-width:1" transform="translate(64.78288,112.2803)" d="M 154.92281,35.472965 C 154.92281,38.271713 152.65397,40.540546 149.85523,40.540546 C 147.05648,40.540546 144.78764,38.271713 144.78764,35.472965 C 144.78764,32.674217 147.05648,30.405384 149.85523,30.405384 C 152.65397,30.405384 154.92281,32.674217 154.92281,35.472965 z "/>
  </g>
  <g id="g733" style="font-size:12px" transform="translate(-181.0778,36.47454)">
    <path id="path734" style="fill-rule:evenodd;stroke-width:1" transform="translate(64.78288,62.93819)" d="M 154.92281,35.472965 C 154.92281,38.271713 152.65397,40.540546 149.85523,40.540546 C 147.05648,40.540546 144.78764,38.271713 144.78764,35.472965 C 144.78764,32.674217 147.05648,30.405384 149.85523,30.405384 C 152.65397,30.405384 154.92281,32.674217 154.92281,35.472965 z "/>
    <path id="path735" style="fill-rule:evenodd;stroke-width:1" transform="translate(64.78288,112.2803)" d="M 154.92281,35.472965 C 154.92281,38.271713 152.65397,40.540546 149.85523,40.540546 C 147.05648,40.540546 144.78764,38.271713 144.78764,35.472965 C 144.78764,32.674217 147.05648,30.405384 149.85523,30.405384 C 152.65397,30.405384 154.92281,32.674217 154.92281,35.472965 z "/>
  </g>
  <g id="g737" style="font-size:12px" transform="translate(63.98799,-29.3149)">
    <path id="path738" style="fill-rule:evenodd;stroke-width:1" transform="translate(64.78288,62.93819)" d="M 154.92281,35.472965 C 154.92281,38.271713 152.65397,40.540546 149.85523,40.540546 C 147.05648,40.540546 144.78764,38.271713 144.78764,35.472965 C 144.78764,32.674217 147.05648,30.405384 149.85523,30.405384 C 152.65397,30.405384 154.92281,32.674217 154.92281,35.472965 z "/>
    <path id="path739" style="fill-rule:evenodd;stroke-width:1" transform="translate(64.78288,112.2803)" d="M 154.92281,35.472965 C 154.92281,38.271713 152.65397,40.540546 149.85523,40.540546 C 147.05648,40.540546 144.78764,38.271713 144.78764,35.472965 C 144.78764,32.674217 147.05648,30.405384 149.85523,30.405384 C 152.65397,30.405384 154.92281,32.674217 154.92281,35.472965 z "/>
  </g>
  <g id="g740" style="font-size:12px" transform="translate(-25.65016,22.49429)">
    <path id="path741" style="fill-rule:evenodd;stroke-width:1" transform="translate(64.78288,62.93819)" d="M 154.92281,35.472965 C 154.92281,38.271713 152.65397,40.540546 149.85523,40.540546 C 147.05648,40.540546 144.78764,38.271713 144.78764,35.472965 C 144.78764,32.674217 147.05648,30.405384 149.85523,30.405384 C 152.65397,30.405384 154.92281,32.674217 154.92281,35.472965 z "/>
    <path id="path742" style="fill-rule:evenodd;stroke-width:1" transform="translate(64.78288,112.2803)" d="M 154.92281,35.472965 C 154.92281,38.271713 152.65397,40.540546 149.85523,40.540546 C 147.05648,40.540546 144.78764,38.271713 144.78764,35.472965 C 144.78764,32.674217 147.05648,30.405384 149.85523,30.405384 C 152.65397,30.405384 154.92281,32.674217 154.92281,35.472965 z "/>
  </g>
  <g id="g743" style="font-size:12px" transform="translate(-115.2883,72.65874)">
    <path id="path744" style="fill-rule:evenodd;stroke-width:1" transform="translate(64.78288,62.93819)" d="M 154.92281,35.472965 C 154.92281,38.271713 152.65397,40.540546 149.85523,40.540546 C 147.05648,40.540546 144.78764,38.271713 144.78764,35.472965 C 144.78764,32.674217 147.05648,30.405384 149.85523,30.405384 C 152.65397,30.405384 154.92281,32.674217 154.92281,35.472965 z "/>
    <path id="path745" style="fill-rule:evenodd;stroke-width:1" transform="translate(64.78288,112.2803)" d="M 154.92281,35.472965 C 154.92281,38.271713 152.65397,40.540546 149.85523,40.540546 C 147.05648,40.540546 144.78764,38.271713 144.78764,35.472965 C 144.78764,32.674217 147.05648,30.405384 149.85523,30.405384 C 152.65397,30.405384 154.92281,32.674217 154.92281,35.472965 z "/>
  </g>
  <text xml:space="preserve" id="text767" style="font-size:14px;font-weight:normal;stroke-width:1;font-family:Arial" y="238.78981" x="96.152496"><tspan id="tspan768">1</tspan></text>


  <text xml:space="preserve" id="text770" style="font-size:14px;font-weight:normal;stroke-width:1;font-family:Arial" y="186.01375" x="193.35094"><tspan id="tspan771">2</tspan></text>


  <text xml:space="preserve" id="text773" style="font-size:14px;font-weight:normal;stroke-width:1;font-family:Arial" y="128.67941" x="287.83463"><tspan id="tspan774">4</tspan></text>


  <text xml:space="preserve" id="text776" style="font-size:14px;font-weight:normal;stroke-width:1;font-family:Arial" y="133.16164" x="197.44662"><tspan id="tspan777">6</tspan></text>


  <text xml:space="preserve" id="text779" style="font-size:14px;font-weight:normal;stroke-width:1;font-family:Arial" y="131.76625" x="101.86761"><tspan id="tspan780">10</tspan></text>


  <text xml:space="preserve" id="text782" style="font-size:14px;font-weight:normal;stroke-width:1;font-family:Arial" y="131.16615" x="11.432406"><tspan id="tspan783">15</tspan></text>


  <text xml:space="preserve" id="text785" style="font-size:14px;font-weight:normal;stroke-width:1;font-family:Arial" y="78.8853" x="105.2112"><tspan id="tspan786">30</tspan></text>


  <text xml:space="preserve" id="text788" style="font-size:14px;font-weight:normal;stroke-width:1;font-family:Arial" y="78.690048" x="192.30276"><tspan id="tspan789">20</tspan></text>


  <text xml:space="preserve" id="text791" style="font-size:14px;font-weight:normal;stroke-width:1;font-family:Arial" y="23.199205" x="206.20528"><tspan id="tspan792">60</tspan></text>


  <text xml:space="preserve" id="text794" style="font-size:14px;font-weight:normal;stroke-width:1;font-family:Arial" y="66.03096" x="285.69113"><tspan id="tspan795">12</tspan></text>


  <text xml:space="preserve" id="text797" style="font-size:14px;font-weight:normal;stroke-width:1;font-family:Arial" y="200.12593" x="19.11018"><tspan id="tspan798">5</tspan></text>


  <path id="path752" style="font-size:12px;fill:none;fill-rule:evenodd;stroke:#000000;stroke-opacity:0.49549997" d="M 279.44854,67.724659 L 100.17223,171.34306"/>
  <path id="path757" style="font-size:12px;fill:none;fill-rule:evenodd;stroke:#000000;stroke-opacity:0.49549997" d="M 125.23374,134.96186 L 190.78824,171.61596"/>
  <path id="path749" style="font-size:12px;fill:none;fill-opacity:0.49549997;fill-rule:evenodd;stroke:#000000;stroke-opacity:0.49549997" d="M 214.48144,80.882459 L 35.205111,184.50096"/>
  <path id="path751" style="font-size:12px;fill:none;fill-opacity:0.49549997;fill-rule:evenodd;stroke:#000000;stroke-opacity:0.49549997" d="M 281.09324,117.06666 L 101.81693,220.68516"/>
  <path id="path754" style="font-size:12px;fill:none;fill-opacity:0.49549997;fill-rule:evenodd;stroke:#000000;stroke-width:1;stroke-opacity:0.49549997" d="M 212.24934,31.657879 L 277.80384,68.311959"/>
  <path id="path755" style="font-size:12px;fill:none;fill-opacity:0.49549997;fill-rule:evenodd;stroke:#000000;stroke-opacity:0.49549997" d="M 214.36394,82.409759 L 279.91844,119.06386"/>
  <path id="path756" style="font-size:12px;fill:none;fill-opacity:0.49549997;fill-rule:evenodd;stroke:#000000;stroke-opacity:0.49549997" d="M 125.54824,86.639059 L 191.10274,123.29316"/>
  <path id="path758" style="font-size:12px;fill:none;fill-opacity:0.49549997;fill-rule:evenodd;stroke:#000000;stroke-opacity:0.49549997" d="M 33.912861,134.57136 L 99.467331,171.22546"/>
  <path id="path759" style="font-size:12px;fill:none;fill-opacity:0.49549997;fill-rule:evenodd;stroke:#000000;stroke-opacity:0.49549997" d="M 36.027461,185.32326 L 101.58193,221.97736"/>
  <path id="path761" style="font-size:12px;fill:none;fill-opacity:0.49549997;fill-rule:evenodd;stroke:#000000;stroke-opacity:0.49549997" d="M 33.912811,184.61836 L 33.912811,135.27626"/>
  <path id="path762" style="font-size:12px;fill:none;fill-opacity:0.49549997;fill-rule:evenodd;stroke:#000000;stroke-opacity:0.49549997" d="M 99.467329,173.34016 L 99.467329,222.68226"/>
  <path id="path763" style="font-size:12px;fill:none;fill-opacity:0.49549997;fill-rule:evenodd;stroke:#000000;stroke-opacity:0.49549997" d="M 123.43344,135.27626 L 123.43344,85.934159"/>
  <path id="path764" style="font-size:12px;fill:none;fill-opacity:0.49549997;fill-rule:evenodd;stroke:#000000;stroke-opacity:0.49549997" d="M 188.98804,173.34016 L 188.98804,123.99806"/>
  <path id="path765" style="font-size:12px;fill:none;fill-opacity:0.49549997;fill-rule:evenodd;stroke:#000000;stroke-opacity:0.49549997" d="M 212.95414,83.819459 L 212.95414,34.477389"/>
  <path id="path766" style="font-size:12px;fill:none;fill-opacity:0.49549997;fill-rule:evenodd;stroke:#000000;stroke-opacity:0.49549997" d="M 278.50864,121.88336 L 278.50864,72.541259"/>
  <path id="path792" style="font-size:12px;fill:none;fill-rule:evenodd;stroke:#000000;stroke-width:1;stroke-opacity:0.49549997" d="M 212.79567,32.217989 L 33.519419,135.83634"/>
<text xml:space="preserve" id="text1364" style="font-size:14px;font-weight:normal;stroke-width:1;font-family:Arial" y="184.43509" x="106.21329"><tspan id="tspan1366">3</tspan></text>

</svg>