<?xml version="1.0" encoding="UTF-8" standalone="no"?>
<svg
   xmlns:dc="http://purl.org/dc/elements/1.1/"
   xmlns:cc="http://creativecommons.org/ns#"
   xmlns:rdf="http://www.w3.org/1999/02/22-rdf-syntax-ns#"
   xmlns:svg="http://www.w3.org/2000/svg"
   xmlns="http://www.w3.org/2000/svg"
   xmlns:sodipodi="http://sodipodi.sourceforge.net/DTD/sodipodi-0.dtd"
   xmlns:inkscape="http://www.inkscape.org/namespaces/inkscape"
   width="19cm"
   height="10cm"
   viewBox="97 -824 365 189"
   id="svg2"
   version="1.1"
   inkscape:version="0.48.2 r9819"
   sodipodi:docname="multigraph_bsp.pdf">
  <metadata
     id="metadata72">
    <rdf:RDF>
      <cc:Work
         rdf:about="">
        <dc:format>image/svg+xml</dc:format>
        <dc:type
           rdf:resource="http://purl.org/dc/dcmitype/StillImage" />
        <dc:title></dc:title>
      </cc:Work>
    </rdf:RDF>
  </metadata>
  <defs
     id="defs70" />
  <sodipodi:namedview
     pagecolor="#ffffff"
     bordercolor="#666666"
     borderopacity="1"
     objecttolerance="10"
     gridtolerance="10"
     guidetolerance="10"
     inkscape:pageopacity="0"
     inkscape:pageshadow="2"
     inkscape:window-width="1680"
     inkscape:window-height="982"
     id="namedview68"
     showgrid="false"
     inkscape:zoom="1.218374"
     inkscape:cx="120.71094"
     inkscape:cy="186.72089"
     inkscape:window-x="-2"
     inkscape:window-y="-3"
     inkscape:window-maximized="1"
     inkscape:current-layer="svg2" />
  <g
     id="g4"
     transform="translate(1.7799585,-2.6699377)">
    <ellipse
       style="fill:#000000"
       cx="106.188"
       cy="-710.06201"
       rx="7.9375"
       ry="7.9375"
       id="ellipse6"
       d="m 114.1255,-710.06201 c 0,4.38376 -3.55374,7.9375 -7.9375,7.9375 -4.38376,0 -7.937496,-3.55374 -7.937496,-7.9375 0,-4.38376 3.553736,-7.9375 7.937496,-7.9375 4.38376,0 7.9375,3.55374 7.9375,7.9375 z"
       sodipodi:cx="106.188"
       sodipodi:cy="-710.06201"
       sodipodi:rx="7.9375"
       sodipodi:ry="7.9375" />
    <ellipse
       style="fill:none;stroke:#000000;stroke-width:2"
       cx="106.188"
       cy="-710.06201"
       rx="7.9375"
       ry="7.9375"
       id="ellipse8"
       d="m 114.1255,-710.06201 c 0,4.38376 -3.55374,7.9375 -7.9375,7.9375 -4.38376,0 -7.937496,-3.55374 -7.937496,-7.9375 0,-4.38376 3.553736,-7.9375 7.937496,-7.9375 4.38376,0 7.9375,3.55374 7.9375,7.9375 z"
       sodipodi:cx="106.188"
       sodipodi:cy="-710.06201"
       sodipodi:rx="7.9375"
       sodipodi:ry="7.9375" />
    <ellipse
       style="fill:none;stroke:#000000;stroke-width:2"
       cx="106.188"
       cy="-710.06201"
       rx="7.9375"
       ry="7.9375"
       id="ellipse10"
       d="m 114.1255,-710.06201 c 0,4.38376 -3.55374,7.9375 -7.9375,7.9375 -4.38376,0 -7.937496,-3.55374 -7.937496,-7.9375 0,-4.38376 3.553736,-7.9375 7.937496,-7.9375 4.38376,0 7.9375,3.55374 7.9375,7.9375 z"
       sodipodi:cx="106.188"
       sodipodi:cy="-710.06201"
       sodipodi:rx="7.9375"
       sodipodi:ry="7.9375" />
  </g>
  <g
     id="g12"
     transform="translate(1.7799585,-2.6699377)">
    <ellipse
       style="fill:#000000"
       cx="291.83701"
       cy="-763.06201"
       rx="7.9375"
       ry="7.9375"
       id="ellipse14"
       d="m 299.77451,-763.06201 c 0,4.38376 -3.55374,7.9375 -7.9375,7.9375 -4.38376,0 -7.9375,-3.55374 -7.9375,-7.9375 0,-4.38376 3.55374,-7.9375 7.9375,-7.9375 4.38376,0 7.9375,3.55374 7.9375,7.9375 z"
       sodipodi:cx="291.83701"
       sodipodi:cy="-763.06201"
       sodipodi:rx="7.9375"
       sodipodi:ry="7.9375" />
    <ellipse
       style="fill:none;stroke:#000000;stroke-width:2"
       cx="291.83701"
       cy="-763.06201"
       rx="7.9375"
       ry="7.9375"
       id="ellipse16"
       d="m 299.77451,-763.06201 c 0,4.38376 -3.55374,7.9375 -7.9375,7.9375 -4.38376,0 -7.9375,-3.55374 -7.9375,-7.9375 0,-4.38376 3.55374,-7.9375 7.9375,-7.9375 4.38376,0 7.9375,3.55374 7.9375,7.9375 z"
       sodipodi:cx="291.83701"
       sodipodi:cy="-763.06201"
       sodipodi:rx="7.9375"
       sodipodi:ry="7.9375" />
    <ellipse
       style="fill:none;stroke:#000000;stroke-width:2"
       cx="291.83701"
       cy="-763.06201"
       rx="7.9375"
       ry="7.9375"
       id="ellipse18"
       d="m 299.77451,-763.06201 c 0,4.38376 -3.55374,7.9375 -7.9375,7.9375 -4.38376,0 -7.9375,-3.55374 -7.9375,-7.9375 0,-4.38376 3.55374,-7.9375 7.9375,-7.9375 4.38376,0 7.9375,3.55374 7.9375,7.9375 z"
       sodipodi:cx="291.83701"
       sodipodi:cy="-763.06201"
       sodipodi:rx="7.9375"
       sodipodi:ry="7.9375" />
  </g>
  <g
     id="g20"
     transform="translate(1.7799585,-2.6699377)">
    <ellipse
       style="fill:#000000"
       cx="438.737"
       cy="-790.81201"
       rx="7.9375"
       ry="7.9375"
       id="ellipse22"
       d="m 446.6745,-790.81201 c 0,4.38376 -3.55374,7.9375 -7.9375,7.9375 -4.38376,0 -7.9375,-3.55374 -7.9375,-7.9375 0,-4.38376 3.55374,-7.9375 7.9375,-7.9375 4.38376,0 7.9375,3.55374 7.9375,7.9375 z"
       sodipodi:cx="438.737"
       sodipodi:cy="-790.81201"
       sodipodi:rx="7.9375"
       sodipodi:ry="7.9375" />
    <ellipse
       style="fill:none;stroke:#000000;stroke-width:2"
       cx="438.737"
       cy="-790.81201"
       rx="7.9375"
       ry="7.9375"
       id="ellipse24"
       d="m 446.6745,-790.81201 c 0,4.38376 -3.55374,7.9375 -7.9375,7.9375 -4.38376,0 -7.9375,-3.55374 -7.9375,-7.9375 0,-4.38376 3.55374,-7.9375 7.9375,-7.9375 4.38376,0 7.9375,3.55374 7.9375,7.9375 z"
       sodipodi:cx="438.737"
       sodipodi:cy="-790.81201"
       sodipodi:rx="7.9375"
       sodipodi:ry="7.9375" />
    <ellipse
       style="fill:none;stroke:#000000;stroke-width:2"
       cx="438.737"
       cy="-790.81201"
       rx="7.9375"
       ry="7.9375"
       id="ellipse26"
       d="m 446.6745,-790.81201 c 0,4.38376 -3.55374,7.9375 -7.9375,7.9375 -4.38376,0 -7.9375,-3.55374 -7.9375,-7.9375 0,-4.38376 3.55374,-7.9375 7.9375,-7.9375 4.38376,0 7.9375,3.55374 7.9375,7.9375 z"
       sodipodi:cx="438.737"
       sodipodi:cy="-790.81201"
       sodipodi:rx="7.9375"
       sodipodi:ry="7.9375" />
  </g>
  <g
     id="g28"
     transform="translate(1.7799585,-2.6699377)">
    <path
       style="fill:none;stroke:#000000;stroke-width:2"
       d="m 113.098,-704.44 c 77.812,63.313 127.416,-75.021 160.979,-64.297"
       id="path30"
       inkscape:connector-curvature="0" />
    <polygon
       style="fill:#000000"
       points="270.174,-764.735 274.077,-768.737 273.218,-774.261 281.222,-766.455 "
       id="polygon32" />
    <polygon
       style="fill:none;stroke:#000000;stroke-width:2"
       points="270.174,-764.735 274.077,-768.737 273.218,-774.261 281.222,-766.455 "
       id="polygon34" />
  </g>
  <g
     id="g36"
     transform="matrix(1,0,0,0.94692776,1.7799585,-44.231501)">
    <path
       style="fill:none;stroke:#000000;stroke-width:2"
       d="M 434.219,-783.113 C 358.481,-654.05 132,-570.75 108.065,-692.572"
       id="path38"
       inkscape:connector-curvature="0" />
    <polygon
       style="fill:#000000"
       points="108.065,-692.572 103.64,-689.155 106.619,-699.931 113.453,-691.082 "
       id="polygon40" />
    <polygon
       style="fill:none;stroke:#000000;stroke-width:2"
       points="108.065,-692.572 103.64,-689.155 106.619,-699.931 113.453,-691.082 "
       id="polygon42" />
  </g>
  <g
     id="g44"
     transform="translate(1.7799585,-2.6699377)">
    <path
       style="fill:none;stroke:#000000;stroke-width:2"
       d="m 106.188,-718 c 24.812,31.25 132.06,-137.201 177.003,-59.929"
       id="path46"
       inkscape:connector-curvature="0" />
    <polygon
       style="fill:#000000"
       points="277.612,-777.577 283.191,-777.929 286.256,-782.604 286.961,-771.446 "
       id="polygon48" />
    <polygon
       style="fill:none;stroke:#000000;stroke-width:2"
       points="277.612,-777.577 283.191,-777.929 286.256,-782.604 286.961,-771.446 "
       id="polygon50" />
  </g>
  <g
     id="g52"
     transform="translate(1.7799585,-2.6699377)">
    <path
       style="fill:none;stroke:#000000;stroke-width:2"
       d="m 300.761,-763.062 c 48.771,0 80.282,-27.75 119.317,-27.75"
       id="path54"
       inkscape:connector-curvature="0" />
    <polygon
       style="fill:#000000"
       points="417.578,-785.812 420.078,-790.812 417.578,-795.812 427.578,-790.812 "
       id="polygon56" />
    <polygon
       style="fill:none;stroke:#000000;stroke-width:2"
       points="417.578,-785.812 420.078,-790.812 417.578,-795.812 427.578,-790.812 "
       id="polygon58" />
  </g>
  <g
     id="g60"
     transform="matrix(0.69476214,0,0,0.72395203,136.342,-225.59879)">
    <path
       style="fill:none;stroke:#000000;stroke-width:2"
       d="m 438.737,-790.812 c -16.737,-46.938 50.938,-36 15.403,-6.25"
       id="path62"
       inkscape:connector-curvature="0" />
    <polygon
       style="fill:#000000"
       points="459.267,-794.833 448.39,-792.248 452.847,-802.501 454.14,-797.062 "
       id="polygon64" />
    <polygon
       style="fill:none;stroke:#000000;stroke-width:2"
       points="459.267,-794.833 448.39,-792.248 452.847,-802.501 454.14,-797.062 "
       id="polygon66" />
  </g>
</svg>
